<mxfile host="app.diagrams.net" modified="2020-12-04T09:11:11.184Z" agent="5.0 (Macintosh; Intel Mac OS X 10_15_6) AppleWebKit/537.36 (KHTML, like Gecko) Chrome/86.0.4240.183 Safari/537.36" etag="ueT1hKHrszYNdQ_5JEz3" version="13.10.1" type="github">
  <diagram name="Page-1" id="e7e014a7-5840-1c2e-5031-d8a46d1fe8dd">
    <mxGraphModel dx="1395" dy="644" grid="1" gridSize="10" guides="1" tooltips="1" connect="1" arrows="1" fold="1" page="1" pageScale="1" pageWidth="1169" pageHeight="826" background="#ffffff" math="0" shadow="0">
      <root>
        <mxCell id="0" />
        <mxCell id="1" parent="0" />
        <mxCell id="CQ51kOs7BKwcPwKA80YT-41" value="Actor" style="shape=umlActor;verticalLabelPosition=bottom;verticalAlign=top;html=1;outlineConnect=0;" vertex="1" parent="1">
          <mxGeometry x="100" y="220" width="40" height="90" as="geometry" />
        </mxCell>
        <mxCell id="CQ51kOs7BKwcPwKA80YT-42" value="登陆后台，验证权限" style="ellipse;whiteSpace=wrap;html=1;" vertex="1" parent="1">
          <mxGeometry x="350" y="60" width="120" height="80" as="geometry" />
        </mxCell>
        <mxCell id="CQ51kOs7BKwcPwKA80YT-44" value="" style="endArrow=classic;html=1;" edge="1" parent="1" target="CQ51kOs7BKwcPwKA80YT-42">
          <mxGeometry width="50" height="50" relative="1" as="geometry">
            <mxPoint x="160" y="240" as="sourcePoint" />
            <mxPoint x="260" y="210" as="targetPoint" />
          </mxGeometry>
        </mxCell>
        <mxCell id="CQ51kOs7BKwcPwKA80YT-49" value="输入&lt;br&gt;1，选择要合并的课程，&lt;br&gt;2，并且勾选要合并的班级&lt;br&gt;3，选择要合入的新课程" style="ellipse;whiteSpace=wrap;html=1;" vertex="1" parent="1">
          <mxGeometry x="360" y="200" width="165" height="100" as="geometry" />
        </mxCell>
        <mxCell id="CQ51kOs7BKwcPwKA80YT-51" value="" style="endArrow=classic;html=1;entryX=0;entryY=0.5;entryDx=0;entryDy=0;" edge="1" parent="1" target="CQ51kOs7BKwcPwKA80YT-49">
          <mxGeometry width="50" height="50" relative="1" as="geometry">
            <mxPoint x="170" y="270" as="sourcePoint" />
            <mxPoint x="230" y="300" as="targetPoint" />
          </mxGeometry>
        </mxCell>
        <mxCell id="CQ51kOs7BKwcPwKA80YT-52" value="等待异步合班任务，消息通知，生成任务结果明细" style="ellipse;whiteSpace=wrap;html=1;" vertex="1" parent="1">
          <mxGeometry x="390" y="350" width="140" height="90" as="geometry" />
        </mxCell>
        <mxCell id="CQ51kOs7BKwcPwKA80YT-53" value="" style="endArrow=classic;html=1;entryX=0;entryY=0.5;entryDx=0;entryDy=0;" edge="1" parent="1" target="CQ51kOs7BKwcPwKA80YT-52">
          <mxGeometry width="50" height="50" relative="1" as="geometry">
            <mxPoint x="170" y="300" as="sourcePoint" />
            <mxPoint x="260" y="433" as="targetPoint" />
          </mxGeometry>
        </mxCell>
        <mxCell id="CQ51kOs7BKwcPwKA80YT-54" value="" style="endArrow=classic;html=1;" edge="1" parent="1" target="CQ51kOs7BKwcPwKA80YT-55">
          <mxGeometry width="50" height="50" relative="1" as="geometry">
            <mxPoint x="532" y="220" as="sourcePoint" />
            <mxPoint x="637" y="200" as="targetPoint" />
          </mxGeometry>
        </mxCell>
        <mxCell id="CQ51kOs7BKwcPwKA80YT-55" value="验证数据是否符合规范逻辑" style="ellipse;whiteSpace=wrap;html=1;" vertex="1" parent="1">
          <mxGeometry x="585" y="70" width="120" height="80" as="geometry" />
        </mxCell>
        <mxCell id="CQ51kOs7BKwcPwKA80YT-56" value="" style="endArrow=classic;html=1;" edge="1" parent="1" target="CQ51kOs7BKwcPwKA80YT-57">
          <mxGeometry width="50" height="50" relative="1" as="geometry">
            <mxPoint x="540" y="250" as="sourcePoint" />
            <mxPoint x="670" y="330" as="targetPoint" />
          </mxGeometry>
        </mxCell>
        <mxCell id="CQ51kOs7BKwcPwKA80YT-57" value="启动异步任务；找到符合条件的所有学员" style="ellipse;whiteSpace=wrap;html=1;" vertex="1" parent="1">
          <mxGeometry x="660" y="190" width="120" height="80" as="geometry" />
        </mxCell>
        <mxCell id="CQ51kOs7BKwcPwKA80YT-58" value="" style="endArrow=classic;html=1;" edge="1" parent="1" target="CQ51kOs7BKwcPwKA80YT-59">
          <mxGeometry width="50" height="50" relative="1" as="geometry">
            <mxPoint x="530" y="280" as="sourcePoint" />
            <mxPoint x="680" y="430" as="targetPoint" />
          </mxGeometry>
        </mxCell>
        <mxCell id="CQ51kOs7BKwcPwKA80YT-59" value="启动异步任务，开班，调课，记录日志" style="ellipse;whiteSpace=wrap;html=1;" vertex="1" parent="1">
          <mxGeometry x="670" y="310" width="120" height="80" as="geometry" />
        </mxCell>
        <mxCell id="CQ51kOs7BKwcPwKA80YT-60" value="如果存在失败数据，需手动处理" style="ellipse;whiteSpace=wrap;html=1;" vertex="1" parent="1">
          <mxGeometry x="385" y="490" width="140" height="90" as="geometry" />
        </mxCell>
        <mxCell id="CQ51kOs7BKwcPwKA80YT-61" value="" style="endArrow=classic;html=1;entryX=0;entryY=0.5;entryDx=0;entryDy=0;" edge="1" parent="1" target="CQ51kOs7BKwcPwKA80YT-60">
          <mxGeometry width="50" height="50" relative="1" as="geometry">
            <mxPoint x="165" y="340" as="sourcePoint" />
            <mxPoint x="255" y="573" as="targetPoint" />
          </mxGeometry>
        </mxCell>
      </root>
    </mxGraphModel>
  </diagram>
</mxfile>
